# xmcd
#
# Track frame offsets: 
#        150
#        14735
#        25545
#        43528
#        55005
#        70965
#        83560
#        96403
#        110510
#        126775
#        139035
#        152278
#        164090
#        173538
#        188645
#        200338
#        213458
#        226535
#
# Disc length: 3179 seconds
#
# Revision: 6
# Processed by: cddbd v1.5.2PL0 Copyright (c) Steve Scherf et al.
# Submitted via: ExactAudioCopy v0.99pb5
#
DISCID=e30c6912
DTITLE=Various Artist - The History Of Country Music - The Seventies - Volume
DTITLE=2 - CD 1
DYEAR=1993
DGENRE=Country
TTITLE0=Don Williams - Tulsa time
TTITLE1=Tanya Tucker - Would you lay with me (in a field of stone)
TTITLE2=Billy Swan - I can help
TTITLE3=Freddy Fender - Before the next teardrop falls
TTITLE4=Willie Nelson - Blue skies
TTITLE5=Lynn Anderson - How can I unlove you
TTITLE6=Mel Tillis - Good woman blues
TTITLE7=Conway Twitty - You've never been this far before
TTITLE8=Ronnie Milsap - It was almost like a song
TTITLE9=Donna Fargo - Funny face
TTITLE10=Charlie Rich - Behind closed doors
TTITLE11=Johnny Paycheck - Take this job and shove it
TTITLE12=Tom T. Hall - I love
TTITLE13=Jeanne Pruett - Satin sheets
TTITLE14=Charley Pride - It's gonna take a little bit longer
TTITLE15=Waylon Jennings - Are you sure Hank done it this way
TTITLE16=Dolly Parton - I will always love you
TTITLE17=Marie Osmond - Paper roses
EXTD=YEAR: 1993
EXTT0=
EXTT1=
EXTT2=
EXTT3=
EXTT4=
EXTT5=
EXTT6=
EXTT7=
EXTT8=
EXTT9=
EXTT10=
EXTT11=
EXTT12=
EXTT13=
EXTT14=
EXTT15=
EXTT16=
EXTT17=
PLAYORDER=
